<svg width="222" height="41" viewBox="0 0 222 41" fill="none" xmlns="http://www.w3.org/2000/svg">
<path d="M1.56 8L1.4 5.8C1.4 4.97333 1.8 4.56 2.6 4.56C3.32 4.56 3.72 4.96 3.8 5.76C3.90667 6.4 3.96 7.22667 3.96 8.24C3.96 9.25333 3.8 11.7867 3.48 15.84C3.16 19.8667 3 22.3733 3 23.36C3 24.32 3.13333 24.9333 3.4 25.2C3.69333 25.4667 4.14667 25.6 4.76 25.6C9.16 25.6 12.28 25.2933 14.12 24.68C14.68 24.4933 15 24.4 15.08 24.4C15.88 24.4 16.28 24.8 16.28 25.6C16.28 26.1867 15.88 26.6133 15.08 26.88C12.84 27.6267 9.4 28 4.76 28C1.98667 28 0.6 26.5333 0.6 23.6C0.6 22.4533 0.76 19.84 1.08 15.76C1.4 11.68 1.56 9.09333 1.56 8ZM13.6556 25.68C13.629 25.68 13.429 25.7867 13.0556 26C12.0956 26.5333 11.389 26.8 10.9356 26.8C10.1356 26.8 9.73562 26.4 9.73562 25.6C9.73562 25.0933 10.1356 24.68 10.9356 24.36C11.069 24.3067 11.389 24.1467 11.8956 23.88C12.4023 23.6133 12.6956 23.4533 12.7756 23.4C12.669 23.16 12.6156 22.8 12.6156 22.32C12.6156 19.92 13.4556 17.8667 15.1356 16.16C16.8156 14.4533 18.349 13.6 19.7356 13.6C21.1223 13.6 22.2156 13.9333 23.0156 14.6C23.8156 15.24 24.2156 16.0267 24.2156 16.96C24.2156 17.8667 24.0023 18.6533 23.5756 19.32C23.149 19.9867 22.4823 20.64 21.5756 21.28C20.3223 22.1867 18.4956 23.24 16.0956 24.44C17.1623 25.2133 18.6423 25.6 20.5356 25.6C22.429 25.6 24.2956 25.2933 26.1356 24.68C26.6956 24.4933 27.0156 24.4 27.0956 24.4C27.8956 24.4 28.2956 24.8 28.2956 25.6C28.2956 26.1867 27.8956 26.6133 27.0956 26.88C24.8556 27.6267 22.6956 28 20.6156 28C17.6556 28 15.3356 27.2267 13.6556 25.68ZM15.0156 22.32C19.549 20.0533 21.8156 18.3467 21.8156 17.2C21.8156 16.4 21.149 16 19.8156 16C19.0156 16 18.0156 16.64 16.8156 17.92C15.6156 19.1733 15.0156 20.64 15.0156 22.32ZM45.8313 19.08C44.8713 21.1333 43.8446 22.8 42.7513 24.08C41.6579 25.36 40.6846 26 39.8313 26C38.0446 26 36.8713 24.7067 36.3113 22.12C35.7513 23.08 35.0579 23.96 34.2313 24.76C32.5779 26.3867 30.7113 27.2 28.6313 27.2C27.5646 27.2 26.6313 26.8 25.8313 26C25.0313 25.2 24.6313 24.2667 24.6313 23.2C24.6313 20.5867 25.5779 18.3333 27.4713 16.44C29.3646 14.5467 31.3779 13.6 33.5113 13.6C34.7113 13.6 35.7379 13.8267 36.5913 14.28C37.4713 14.7067 37.9113 15.1467 37.9113 15.6C37.9113 16.4 37.5113 16.8 36.7113 16.8C36.5513 16.8 36.1646 16.6667 35.5513 16.4C34.9379 16.1333 34.2579 16 33.5113 16C32.1246 16 30.6979 16.6933 29.2313 18.08C27.7646 19.4667 27.0313 21.1733 27.0313 23.2C27.0313 23.6 27.1913 23.9733 27.5113 24.32C27.8313 24.64 28.2313 24.8 28.7113 24.8C29.2179 24.8 29.7246 24.7067 30.2313 24.52C30.7646 24.3333 31.2046 24.12 31.5513 23.88C31.8979 23.64 32.2579 23.32 32.6313 22.92C33.1913 22.36 33.6979 21.7333 34.1513 21.04L34.5513 20.4C34.9779 19.7867 35.2313 19.4133 35.3113 19.28C35.4179 19.12 35.5246 18.96 35.6313 18.8C35.7646 18.64 35.8579 18.52 35.9113 18.44C35.9913 18.36 36.0713 18.28 36.1513 18.2C36.2846 18.0667 36.5113 18 36.8313 18C37.1779 18 37.4579 18.1733 37.6713 18.52C37.9113 18.84 38.1379 19.48 38.3513 20.44C38.7779 22.5467 39.2713 23.6 39.8313 23.6C40.0179 23.6 40.3246 23.3467 40.7513 22.84C41.2046 22.3333 41.7113 21.6 42.2713 20.64C42.8313 19.68 43.3779 18.6133 43.9113 17.44C45.2179 14.64 46.0313 11.84 46.3513 9.04C46.3513 8.96 46.3779 8.6 46.4313 7.96C46.5113 7.29333 46.6046 6.37333 46.7113 5.2C46.8179 4.02667 46.9246 2.85333 47.0313 1.68C47.1113 0.879999 47.5113 0.479999 48.2313 0.479999C49.0313 0.479999 49.4313 0.879999 49.4313 1.68C49.4313 1.78666 49.4046 2.05333 49.3513 2.48C48.6046 9.94667 48.2313 15.6533 48.2313 19.6C48.2313 20.88 48.3646 21.8133 48.6313 22.4C51.5646 19.4667 54.3646 18 57.0313 18C57.8313 18 58.2313 18.4 58.2313 19.2C58.2313 20 57.7779 20.4 56.8713 20.4C55.9913 20.4 55.0313 20.68 53.9913 21.24C52.9779 21.7733 52.1379 22.36 51.4713 23C50.8313 23.64 50.2313 24.24 49.6713 24.8C49.1379 25.3333 48.7913 25.6 48.6313 25.6C47.6446 25.6 46.9246 24.9467 46.4713 23.64C46.0446 22.3067 45.8313 20.7867 45.8313 19.08ZM78.7081 25.6C78.7081 26.6667 77.4815 27.2 75.0281 27.2C73.8815 27.2 72.9881 26.9467 72.3481 26.44C71.7348 25.9333 71.4281 25.0533 71.4281 23.8C71.4281 22.5467 71.3215 21.4667 71.1081 20.56C70.8948 19.6533 70.6015 19.2 70.2281 19.2C69.1081 19.2 68.0415 20.24 67.0281 22.32C66.6015 23.1733 66.1481 24.04 65.6681 24.92C65.1881 25.7733 64.5481 26.5067 63.7481 27.12C62.9748 27.7067 62.0681 28 61.0281 28C58.6281 28 57.4281 25.68 57.4281 21.04C57.4281 17.7067 57.7881 14.4667 58.5081 11.32C59.2548 8.17333 60.2815 5.58667 61.5881 3.56C62.9215 1.50667 64.3215 0.479999 65.7881 0.479999C67.2548 0.479999 68.3615 1.01333 69.1081 2.08C69.8548 3.14667 70.2281 4.53333 70.2281 6.24C70.2281 7.92 69.7481 9.58667 68.7881 11.24C67.8548 12.8667 66.7081 14.1867 65.3481 15.2C64.6815 15.7333 64.1748 16 63.8281 16C63.0281 16 62.6281 15.6 62.6281 14.8C62.6281 14.48 63.0815 13.9733 63.9881 13.28C64.8948 12.5867 65.7615 11.6 66.5881 10.32C67.4148 9.01333 67.8281 7.49333 67.8281 5.76C67.8281 5.04 67.6681 4.38667 67.3481 3.8C67.0281 3.18667 66.5215 2.88 65.8281 2.88C65.0281 2.88 64.1615 3.72 63.2281 5.4C62.3215 7.05333 61.5215 9.32 60.8281 12.2C60.1615 15.08 59.8281 18.04 59.8281 21.08C59.8281 24.0933 60.2281 25.6 61.0281 25.6C62.1481 25.6 63.2148 24.56 64.2281 22.48C64.6548 21.6267 65.1081 20.7733 65.5881 19.92C66.0681 19.04 66.6948 18.3067 67.4681 17.72C68.2681 17.1067 69.1881 16.8 70.2281 16.8C72.6281 16.8 73.8281 19.0667 73.8281 23.6C73.8281 24.4 74.2148 24.8 74.9881 24.8C75.7881 24.8 76.3881 24.7333 76.7881 24.6C77.1881 24.4667 77.4281 24.4 77.5081 24.4C78.3081 24.4 78.7081 24.8 78.7081 25.6ZM76.0697 25.68C76.043 25.68 75.843 25.7867 75.4697 26C74.5097 26.5333 73.803 26.8 73.3497 26.8C72.5497 26.8 72.1497 26.4 72.1497 25.6C72.1497 25.0933 72.5497 24.68 73.3497 24.36C73.483 24.3067 73.803 24.1467 74.3097 23.88C74.8164 23.6133 75.1097 23.4533 75.1897 23.4C75.083 23.16 75.0297 22.8 75.0297 22.32C75.0297 19.92 75.8697 17.8667 77.5497 16.16C79.2297 14.4533 80.763 13.6 82.1497 13.6C83.5364 13.6 84.6297 13.9333 85.4297 14.6C86.2297 15.24 86.6297 16.0267 86.6297 16.96C86.6297 17.8667 86.4164 18.6533 85.9897 19.32C85.563 19.9867 84.8964 20.64 83.9897 21.28C82.7364 22.1867 80.9097 23.24 78.5097 24.44C79.5764 25.2133 81.0564 25.6 82.9497 25.6C84.843 25.6 86.7097 25.2933 88.5497 24.68C89.1097 24.4933 89.4297 24.4 89.5097 24.4C90.3097 24.4 90.7097 24.8 90.7097 25.6C90.7097 26.1867 90.3097 26.6133 89.5097 26.88C87.2697 27.6267 85.1097 28 83.0297 28C80.0697 28 77.7497 27.2267 76.0697 25.68ZM77.4297 22.32C81.963 20.0533 84.2297 18.3467 84.2297 17.2C84.2297 16.4 83.563 16 82.2297 16C81.4297 16 80.4297 16.64 79.2297 17.92C78.0297 19.1733 77.4297 20.64 77.4297 22.32ZM88.1253 22.64C88.1786 22.56 88.2986 21.9867 88.4853 20.92C88.6986 19.8533 88.9386 18.8133 89.2053 17.8C89.4986 16.76 90.0053 15.8 90.7253 14.92C91.472 14.04 92.3653 13.6 93.4053 13.6C95.432 13.6 97.1386 14.1333 98.5253 15.2C99.9386 16.24 100.645 17.5867 100.645 19.24C100.645 20.8933 100.872 22.3733 101.325 23.68C101.779 24.96 102.379 25.6 103.125 25.6C103.632 25.6 104.259 25.44 105.005 25.12C106.205 24.64 106.912 24.4 107.125 24.4C107.925 24.4 108.325 24.8 108.325 25.6C108.325 26.1867 107.925 26.6133 107.125 26.88C105.632 27.6267 104.285 28 103.085 28C101.912 28 100.939 27.5067 100.165 26.52C99.392 25.5067 98.872 24.3867 98.6053 23.16C98.3653 21.9333 98.2453 20.6133 98.2453 19.2C98.2453 18.2667 97.792 17.5067 96.8853 16.92C95.9786 16.3067 94.832 16 93.4453 16C92.3253 16 91.4453 17.7867 90.8053 21.36C90.5386 22.7467 90.352 23.5467 90.2453 23.76C89.792 24.6933 88.552 25.6 86.5253 26.48C86.0453 26.6933 85.6586 26.8 85.3653 26.8C84.5653 26.8 84.1653 26.4 84.1653 25.6C84.1653 25.0933 84.5653 24.68 85.3653 24.36C86.9386 23.72 87.8586 23.1467 88.1253 22.64ZM128.666 4.56C128.666 3.44 128.132 2.88 127.066 2.88C126.346 2.88 125.626 3.29333 124.906 4.12C124.212 4.92 123.866 6.16 123.866 7.84C123.866 9.52 124.159 10.7733 124.746 11.6C127.359 8.74667 128.666 6.4 128.666 4.56ZM124.666 15.56C122.932 17.7733 121.959 18.9733 121.746 19.16C121.532 19.3467 121.306 19.44 121.066 19.44C120.266 19.44 119.866 19.04 119.866 18.24C119.866 17.92 120.039 17.5467 120.386 17.12C120.732 16.6667 120.999 16.32 121.186 16.08C121.372 15.84 121.546 15.6133 121.706 15.4C121.946 15.08 122.426 14.48 123.146 13.6C122.026 12.0267 121.466 10.16 121.466 8C121.466 6.53333 121.679 5.26667 122.106 4.2C122.532 3.10667 123.066 2.32 123.706 1.84C124.932 0.933332 126.092 0.479999 127.186 0.479999C128.306 0.479999 129.226 0.866666 129.946 1.64C130.692 2.38667 131.066 3.42667 131.066 4.76C131.066 6.09333 130.679 7.42667 129.906 8.76C129.159 10.0933 127.932 11.7067 126.226 13.6C127.479 15.28 129.546 17.0667 132.426 18.96C133.332 19.5733 134.132 20.36 134.826 21.32C135.519 22.2533 135.866 23.28 135.866 24.4C135.866 25.52 135.359 26.4 134.346 27.04C133.359 27.68 132.092 28 130.546 28C129.026 28 127.466 27.6 125.866 26.8C125.066 26.4267 124.666 26.0267 124.666 25.6C124.666 24.8 125.066 24.4 125.866 24.4C126.106 24.4 126.452 24.5067 126.906 24.72C127.359 24.9333 128.012 25.1333 128.866 25.32C129.746 25.5067 130.452 25.6 130.986 25.6C131.546 25.6 132.092 25.4933 132.626 25.28C133.186 25.0667 133.466 24.7733 133.466 24.4C133.466 23.68 133.146 22.9733 132.506 22.28C131.866 21.56 131.119 20.9333 130.266 20.4C129.439 19.8667 128.466 19.16 127.346 18.28C126.252 17.3733 125.359 16.4667 124.666 15.56ZM149.484 17.2C149.484 20.56 149.324 24.16 149.004 28C148.711 31.8667 148.338 34.8267 147.884 36.88C147.378 39.28 146.178 40.48 144.284 40.48C140.818 40.48 139.084 38.16 139.084 33.52C139.084 32.24 139.431 31 140.124 29.8C140.844 28.6 141.644 28 142.524 28C143.431 28 143.884 28.4 143.884 29.2C143.884 29.3867 143.698 29.6133 143.324 29.88C142.098 30.7333 141.484 31.92 141.484 33.44C141.484 34.9867 141.671 36.1467 142.044 36.92C142.444 37.6933 143.191 38.08 144.284 38.08C144.924 38.08 145.364 37.4667 145.604 36.24C146.111 33.8667 146.524 30.1067 146.844 24.96C146.951 23.3333 146.991 22.3467 146.964 22C146.404 22.8 145.991 23.3067 145.724 23.52C145.484 23.7067 145.231 23.9067 144.964 24.12C144.724 24.3067 144.484 24.4667 144.244 24.6C144.031 24.7067 143.751 24.84 143.404 25C143.084 25.1333 142.751 25.24 142.404 25.32C141.604 25.5067 140.764 25.6 139.884 25.6C138.471 25.6 137.458 24.8 136.844 23.2C136.018 21.0933 135.444 18.4267 135.124 15.2C135.098 15.04 135.084 14.8267 135.084 14.56C135.084 13.92 135.458 13.6 136.204 13.6C136.978 13.6 137.404 14 137.484 14.8C137.671 16.56 137.978 18.4 138.404 20.32C138.858 22.24 139.351 23.2 139.884 23.2C141.618 23.2 142.964 22.76 143.924 21.88C144.884 21 145.938 19.44 147.084 17.2C147.404 16.4 147.804 16 148.284 16C149.084 16 149.484 16.4 149.484 17.2ZM163.92 23.44C163.92 22.64 164.32 22.24 165.12 22.24C165.44 22.24 165.827 22.36 166.28 22.6C166.76 22.8133 167.24 23.04 167.72 23.28C168.2 23.4933 168.52 23.64 168.68 23.72C168.867 23.8 169.174 23.9333 169.6 24.12C170.054 24.3067 170.387 24.44 170.6 24.52C170.814 24.6 171.107 24.72 171.48 24.88C171.88 25.0133 172.214 25.12 172.48 25.2C172.747 25.2533 173.04 25.32 173.36 25.4C173.92 25.5333 174.507 25.6 175.12 25.6C175.76 25.6 176.32 25.4133 176.8 25.04C177.28 24.6667 177.52 24.2 177.52 23.64C177.52 23.08 177.32 21.1333 176.92 17.8C176.52 14.4667 176.32 12 176.32 10.4C176.32 8.8 176.587 7.25333 177.12 5.76C177.174 5.52 177.307 5.26667 177.52 5C177.76 4.70667 178.027 4.56 178.32 4.56C179.12 4.56 179.52 4.96 179.52 5.76C179.52 5.89333 179.467 6.12 179.36 6.44C178.934 7.72 178.72 9.08 178.72 10.52C178.72 11.9333 178.92 14.32 179.32 17.68C179.72 21.04 179.92 23.0133 179.92 23.6C179.92 24.8267 179.44 25.8667 178.48 26.72C177.52 27.5733 176.4 28 175.12 28C173.894 28 172.827 27.84 171.92 27.52C171.04 27.2 170.454 27 170.16 26.92C169.894 26.8133 169.48 26.64 168.92 26.4C168.36 26.16 167.987 26 167.8 25.92C167.64 25.84 167.267 25.6667 166.68 25.4C166.094 25.1333 165.667 24.9467 165.4 24.84C165.16 24.7067 164.934 24.5867 164.72 24.48C164.187 24.2133 163.92 23.8667 163.92 23.44ZM180.179 25.68C180.152 25.68 179.952 25.7867 179.579 26C178.619 26.5333 177.912 26.8 177.459 26.8C176.659 26.8 176.259 26.4 176.259 25.6C176.259 25.0933 176.659 24.68 177.459 24.36C177.592 24.3067 177.912 24.1467 178.419 23.88C178.926 23.6133 179.219 23.4533 179.299 23.4C179.192 23.16 179.139 22.8 179.139 22.32C179.139 19.92 179.979 17.8667 181.659 16.16C183.339 14.4533 184.872 13.6 186.259 13.6C187.646 13.6 188.739 13.9333 189.539 14.6C190.339 15.24 190.739 16.0267 190.739 16.96C190.739 17.8667 190.526 18.6533 190.099 19.32C189.672 19.9867 189.006 20.64 188.099 21.28C186.846 22.1867 185.019 23.24 182.619 24.44C183.686 25.2133 185.166 25.6 187.059 25.6C188.952 25.6 190.819 25.2933 192.659 24.68C193.219 24.4933 193.539 24.4 193.619 24.4C194.419 24.4 194.819 24.8 194.819 25.6C194.819 26.1867 194.419 26.6133 193.619 26.88C191.379 27.6267 189.219 28 187.139 28C184.179 28 181.859 27.2267 180.179 25.68ZM181.539 22.32C186.072 20.0533 188.339 18.3467 188.339 17.2C188.339 16.4 187.672 16 186.339 16C185.539 16 184.539 16.64 183.339 17.92C182.139 19.1733 181.539 20.64 181.539 22.32ZM199.995 25.48L199.955 28C199.955 31.44 200.208 33.9733 200.715 35.6C201.221 37.2533 202.035 38.08 203.155 38.08C203.315 38.08 203.701 37.9467 204.315 37.68C204.955 37.4133 205.501 37.28 205.955 37.28C206.755 37.28 207.155 37.68 207.155 38.48C207.155 38.88 206.701 39.3067 205.795 39.76C204.888 40.24 204.008 40.48 203.155 40.48C199.421 40.48 197.555 36.32 197.555 28C197.555 27.1733 197.568 26.5467 197.595 26.12C196.075 26.5467 194.901 26.9733 194.075 27.4C193.248 27.8 192.675 28 192.355 28C191.555 28 191.155 27.6 191.155 26.8C191.155 26.4 191.555 26 192.355 25.6C194.355 24.72 196.141 24.0533 197.715 23.6C197.821 22.1333 198.155 18.7467 198.715 13.44C199.275 8.13333 199.555 4.21333 199.555 1.68C199.555 0.879999 199.955 0.479999 200.755 0.479999C201.235 0.479999 201.555 0.586666 201.715 0.8C201.875 0.986666 201.955 1.28 201.955 1.68C201.955 4.16 201.675 8.05333 201.115 13.36C200.555 18.6667 200.235 21.8933 200.155 23.04C203.035 22.4 206.208 21.9333 209.675 21.64C209.701 21.0533 209.888 19.0667 210.235 15.68C210.581 12.2667 210.755 8.96 210.755 5.76C210.755 4.96 211.155 4.56 211.955 4.56C212.435 4.56 212.755 4.66667 212.915 4.88C213.075 5.06667 213.155 5.36 213.155 5.76C213.155 9.30667 212.995 12.5333 212.675 15.44C212.355 18.3467 212.155 20.3467 212.075 21.44C214.555 21.28 217.315 21.2 220.355 21.2C221.155 21.2 221.555 21.6133 221.555 22.44C221.555 23.2667 221.155 23.68 220.355 23.68C217.235 23.68 214.435 23.76 211.955 23.92V25.6C211.955 27.2 212.235 28.9067 212.795 30.72C213.568 33.2267 213.955 34.72 213.955 35.2C213.955 36 213.555 36.4 212.755 36.4C212.168 36.4 211.768 36 211.555 35.2C211.448 34.7467 211.181 33.8 210.755 32.36C209.955 29.6667 209.555 27.4133 209.555 25.6V24.08C206.035 24.4 202.848 24.8667 199.995 25.48Z" fill="#EDEEF0"/>
</svg>
