<svg width="28" height="27" viewBox="0 0 28 27" fill="none" xmlns="http://www.w3.org/2000/svg">
<path d="M14 27C21.732 27 28 20.9558 28 13.5C28 6.04416 21.732 0 14 0C6.26801 0 0 6.04416 0 13.5C0 20.9558 6.26801 27 14 27Z" fill="#797D83"/>
<path d="M14.04 15.664C14.1573 15.568 14.26 15.528 14.348 15.544C14.436 15.56 14.48 15.6453 14.48 15.8C14.48 15.848 14.4693 15.896 14.448 15.944C14.4267 15.992 14.4027 16.0333 14.376 16.068C14.3493 16.1027 14.3107 16.1413 14.26 16.184C14.2093 16.2267 14.168 16.2587 14.136 16.28C14.104 16.3013 14.0573 16.332 13.996 16.372C13.9347 16.412 13.8987 16.4373 13.888 16.448C13.76 16.5333 13.6293 16.6053 13.496 16.664C13.4267 16.696 13.268 16.752 13.02 16.832C12.772 16.912 12.468 16.9987 12.108 17.092C11.748 17.1853 11.4147 17.2493 11.108 17.284C10.8013 17.3187 10.5573 17.3013 10.376 17.232C10.3067 17.2 10.2387 17.1827 10.172 17.18C10.1053 17.1773 10.0453 17.188 9.992 17.212C9.93867 17.236 9.88667 17.2707 9.836 17.316C9.78533 17.3613 9.73867 17.4107 9.696 17.464C9.65333 17.5173 9.60933 17.5813 9.564 17.656C9.51867 17.7307 9.47867 17.8 9.444 17.864C9.40933 17.928 9.37067 17.9987 9.328 18.076C9.28533 18.1533 9.248 18.2187 9.216 18.272C8.896 18.7733 8.672 19.064 8.544 19.144C8.368 19.272 8.176 19.4213 7.968 19.592C7.808 19.7253 7.66667 19.8027 7.544 19.824C7.42133 19.8507 7.11467 19.8667 6.624 19.872L5.608 19.888V19.216C5.608 18.9067 5.624 18.6987 5.656 18.592C5.688 18.4853 5.784 18.3333 5.944 18.136C6.152 17.8747 6.52267 17.552 7.056 17.168C7.55733 16.8053 7.82933 16.576 7.872 16.48C7.90933 16.3893 8.10667 16.2907 8.464 16.184C8.88 16.0453 9.12267 15.9333 9.192 15.848C9.256 15.7627 9.244 15.584 9.156 15.312C9.068 15.04 8.95067 14.7493 8.804 14.44C8.65733 14.1307 8.576 13.9547 8.56 13.912C8.256 12.904 8.19733 11.9333 8.384 11C8.53867 10.2267 8.832 9.64267 9.264 9.248C9.264 9.248 9.26667 9.24533 9.272 9.24C9.61867 8.93067 10.0227 8.77467 10.484 8.772C10.9453 8.76933 11.336 8.94133 11.656 9.288C11.768 9.41067 11.824 9.768 11.824 10.36C11.824 10.7653 11.7987 11.1347 11.748 11.468C11.6973 11.8013 11.5973 12.2987 11.448 12.96C11.2827 13.7173 11.168 14.2613 11.104 14.592L11.04 15.008L11.472 14.944C11.648 14.9173 11.7787 14.9147 11.864 14.936C11.944 14.9573 12.0453 15.0213 12.168 15.128L12.44 15.36L12.24 15.56C12.1067 15.704 11.8853 15.8027 11.576 15.856C11.4907 15.8773 11.3827 15.9147 11.252 15.968C11.1213 16.0213 10.992 16.092 10.864 16.18C10.736 16.268 10.6613 16.3627 10.64 16.464C10.6187 16.5653 10.6747 16.672 10.808 16.784C10.8773 16.8373 10.9573 16.8707 11.048 16.884C11.1387 16.8973 11.2453 16.892 11.368 16.868C11.4907 16.844 11.5987 16.8173 11.692 16.788C11.7853 16.7587 11.908 16.7173 12.06 16.664C12.212 16.6107 12.3227 16.5733 12.392 16.552C12.472 16.504 12.5933 16.4507 12.756 16.392C12.9187 16.3333 13.0213 16.2933 13.064 16.272C13.48 16.0587 13.8053 15.856 14.04 15.664ZM8.288 18.112C8.74667 17.472 8.976 17.0987 8.976 16.992C8.976 16.768 8.704 16.8933 8.16 17.368L8.088 17.432C7.784 17.704 7.592 17.84 7.512 17.84C7.384 17.84 7.172 18.0013 6.876 18.324C6.58 18.6467 6.41867 18.88 6.392 19.024C6.38133 19.1573 6.38933 19.2373 6.416 19.264C6.44267 19.2907 6.52 19.296 6.648 19.28C6.86133 19.264 7.13733 19.1347 7.476 18.892C7.81467 18.6493 8.08533 18.3893 8.288 18.112ZM10.408 13.96C10.936 11.4107 11.0933 9.99467 10.88 9.712C10.8 9.632 10.6613 9.592 10.464 9.592C10.4 9.592 10.3427 9.59733 10.292 9.608C10.2413 9.61867 10.192 9.644 10.144 9.684C10.096 9.724 10.0453 9.77333 9.992 9.832C9.93333 9.89067 9.864 9.968 9.784 10.064C9.57067 10.336 9.41733 10.624 9.324 10.928C9.23067 11.232 9.16 11.6587 9.112 12.208C9.08533 12.5493 9.07867 12.7787 9.092 12.896C9.10533 13.0133 9.15733 13.1307 9.248 13.248C9.38133 13.4453 9.48 13.7173 9.544 14.064C9.61867 14.4267 9.68533 14.624 9.744 14.656C9.79733 14.704 9.824 14.7893 9.824 14.912C9.824 15.1467 9.888 15.176 10.016 15C10.176 14.7653 10.3067 14.4187 10.408 13.96ZM21.5398 15.456C21.5398 15.456 21.5424 15.4533 21.5478 15.448C21.5531 15.4427 21.5584 15.44 21.5638 15.44C21.6918 15.328 21.7958 15.2907 21.8758 15.328C21.9344 15.36 21.9718 15.416 21.9878 15.496C22.0198 15.704 21.8811 15.9227 21.5718 16.152C21.1238 16.4773 20.6624 16.7867 20.1878 17.08C20.1184 17.1227 20.0651 17.1493 20.0278 17.16C19.9744 17.1707 19.8971 17.1627 19.7958 17.136C19.4864 17.056 19.0011 16.912 18.3398 16.704C18.0518 16.6347 17.8251 16.584 17.6598 16.552C17.3771 16.4987 17.1878 16.4427 17.0918 16.384C17.0064 16.3307 16.8358 16.384 16.5798 16.544C16.3664 16.672 16.1584 16.7707 15.9557 16.84C15.7531 16.9093 15.5504 16.944 15.3478 16.944C15.1451 16.944 14.9518 16.888 14.7678 16.776C14.5838 16.664 14.4251 16.496 14.2918 16.272C14.2651 16.2293 14.2438 16.1853 14.2278 16.14C14.2118 16.0947 14.2011 16.0453 14.1958 15.992C14.1904 15.9387 14.1878 15.8947 14.1878 15.86C14.1878 15.8253 14.1931 15.7747 14.2038 15.708C14.2144 15.6413 14.2224 15.596 14.2278 15.572C14.2331 15.548 14.2451 15.4973 14.2638 15.42C14.2824 15.3427 14.2918 15.296 14.2918 15.28C14.3344 15.0987 14.4078 14.9293 14.5118 14.772C14.6158 14.6147 14.7371 14.512 14.8758 14.464C15.0518 14.4 15.2878 14.3827 15.5838 14.412C15.8798 14.4413 16.0811 14.4987 16.1878 14.584C16.4971 14.8187 16.7384 14.9053 16.9118 14.844C17.0851 14.7827 17.2731 14.5467 17.4758 14.136C17.5824 13.912 17.7264 13.6107 17.9078 13.232C18.2704 12.4853 18.0544 12.1467 17.2598 12.216C16.9824 12.2427 16.7451 12.2027 16.5478 12.096C16.1958 11.8987 15.9051 11.7653 15.6758 11.696C15.5264 11.6533 15.4184 11.584 15.3518 11.488C15.2851 11.392 15.2838 11.304 15.3478 11.224C15.4011 11.1547 15.4944 11.1467 15.6278 11.2C15.8998 11.3173 16.1264 11.4053 16.3078 11.464C16.4891 11.5227 16.6624 11.56 16.8278 11.576C16.9984 11.592 17.2091 11.5973 17.4598 11.592C17.9771 11.592 18.2998 11.5493 18.4278 11.464C18.4811 11.416 18.5478 11.3267 18.6278 11.196C18.7078 11.0653 18.7758 10.9173 18.8318 10.752C18.8878 10.5867 18.9291 10.4347 18.9558 10.296C18.9718 10.152 19.0718 9.95333 19.2558 9.7C19.4398 9.44667 19.6251 9.25867 19.8118 9.136C20.0411 8.98133 20.3478 9.016 20.7318 9.24C20.8651 9.32 20.9451 9.39333 20.9718 9.46C20.9984 9.52667 21.0091 9.67733 21.0038 9.912C20.9931 10.2107 20.9504 10.4693 20.8758 10.688C20.8011 10.9067 20.6838 11.0973 20.5238 11.26C20.3638 11.4227 20.1531 11.568 19.8918 11.696C19.6411 11.8187 19.4584 11.9667 19.3438 12.14C19.2291 12.3133 19.0624 12.688 18.8438 13.264C18.4704 14.2293 18.1691 14.9013 17.9398 15.28C17.8064 15.4987 17.7758 15.6773 17.8478 15.816C17.9198 15.9547 18.0864 16.0347 18.3478 16.056C18.6944 16.088 19.0758 16.1707 19.4918 16.304C19.7531 16.3947 20.0358 16.3813 20.3398 16.264C20.4518 16.2267 20.5571 16.1813 20.6558 16.128C20.7544 16.0747 20.8651 16 20.9878 15.904C21.1104 15.808 21.1958 15.7413 21.2438 15.704C21.2918 15.6667 21.3904 15.584 21.5398 15.456ZM19.7158 10.2C19.4971 10.5627 19.4918 10.7493 19.6998 10.76C19.7744 10.7493 19.8651 10.6947 19.9718 10.596C20.0784 10.4973 20.1651 10.3867 20.2318 10.264C20.2984 10.1413 20.3158 10.0533 20.2838 10C20.1611 9.76 19.9718 9.82667 19.7158 10.2ZM15.9638 15.848C16.1878 15.72 16.2971 15.6133 16.2918 15.528C16.2864 15.4427 16.1638 15.3573 15.9238 15.272C15.7104 15.1813 15.5811 15.1387 15.5358 15.144C15.4904 15.1493 15.4038 15.2027 15.2758 15.304C15.1584 15.4053 15.1038 15.4987 15.1118 15.584C15.1198 15.6693 15.1958 15.768 15.3398 15.88C15.4571 15.9707 15.5411 16.0133 15.5918 16.008C15.6424 16.0027 15.7664 15.9493 15.9638 15.848Z" fill="white"/>
</svg>
