<svg width="28" height="27" viewBox="0 0 28 27" fill="none" xmlns="http://www.w3.org/2000/svg">
<path d="M14 27C21.732 27 28 20.9558 28 13.5C28 6.04416 21.732 0 14 0C6.26801 0 0 6.04416 0 13.5C0 20.9558 6.26801 27 14 27Z" fill="#797D83"/>
<path d="M15.692 10L15.44 16.3C15.44 17.02 16.82 17.38 19.58 17.38C19.94 17.38 20.12 17.56 20.12 17.92C20.12 18.28 19.94 18.46 19.58 18.46C16.1 18.46 14.36 17.74 14.36 16.3L14.612 10L14.54 9.01C14.54 8.638 14.72 8.452 15.08 8.452C15.404 8.452 15.584 8.632 15.62 8.992C15.668 9.28 15.692 9.616 15.692 10ZM5.72 16.948C5.72 16.588 5.9 16.408 6.26 16.408C6.404 16.408 6.578 16.462 6.782 16.57C6.998 16.666 7.214 16.768 7.43 16.876C7.646 16.972 7.79 17.038 7.862 17.074C7.946 17.11 8.084 17.17 8.276 17.254C8.48 17.338 8.63 17.398 8.726 17.434C8.822 17.47 8.954 17.524 9.122 17.596C9.302 17.656 9.452 17.704 9.572 17.74C9.692 17.764 9.824 17.794 9.968 17.83C10.22 17.89 10.484 17.92 10.76 17.92C11.048 17.92 11.3 17.836 11.516 17.668C11.732 17.5 11.84 17.29 11.84 17.038C11.84 16.786 11.75 15.91 11.57 14.41C11.39 12.91 11.3 11.8 11.3 11.08C11.3 10.36 11.42 9.664 11.66 8.992C11.684 8.884 11.744 8.77 11.84 8.65C11.948 8.518 12.068 8.452 12.2 8.452C12.56 8.452 12.74 8.632 12.74 8.992C12.74 9.052 12.716 9.154 12.668 9.298C12.476 9.874 12.38 10.486 12.38 11.134C12.38 11.77 12.47 12.844 12.65 14.356C12.83 15.868 12.92 16.756 12.92 17.02C12.92 17.572 12.704 18.04 12.272 18.424C11.84 18.808 11.336 19 10.76 19C10.208 19 9.728 18.928 9.32 18.784C8.924 18.64 8.66 18.55 8.528 18.514C8.408 18.466 8.222 18.388 7.97 18.28C7.718 18.172 7.55 18.1 7.466 18.064C7.394 18.028 7.226 17.95 6.962 17.83C6.698 17.71 6.506 17.626 6.386 17.578C6.278 17.518 6.176 17.464 6.08 17.416C5.84 17.296 5.72 17.14 5.72 16.948Z" fill="white"/>
</svg>
